<svg xmlns="http://www.w3.org/2000/svg" width="1440" height="900"><path d="M686,457L785,361L684,372Z" fill="#87809d" stroke="#87809d" stroke-width="1.51"/><path d="M686,457L788,467L785,361Z" fill="#8a7c9a" stroke="#8a7c9a" stroke-width="1.51"/><path d="M686,457L769,528L788,467Z" fill="#8d7897" stroke="#8d7897" stroke-width="1.51"/><path d="M788,467L857,466L785,361Z" fill="#8c7997" stroke="#8c7997" stroke-width="1.51"/><path d="M853,555L857,466L788,467Z" fill="#907493" stroke="#907493" stroke-width="1.51"/><path d="M857,466L880,354L785,361Z" fill="#8b7a99" stroke="#8b7a99" stroke-width="1.51"/><path d="M880,354L742,232L785,361Z" fill="#86829f" stroke="#86829f" stroke-width="1.51"/><path d="M785,361L742,232L684,372Z" fill="#8484a1" stroke="#8484a1" stroke-width="1.51"/><path d="M857,466L993,461L880,354Z" fill="#8f7594" stroke="#8f7594" stroke-width="1.51"/><path d="M769,528L853,555L788,467Z" fill="#907393" stroke="#907393" stroke-width="1.51"/><path d="M686,457L655,575L769,528Z" fill="#8d7896" stroke="#8d7896" stroke-width="1.51"/><path d="M769,528L801,689L853,555Z" fill="#936e8f" stroke="#936e8f" stroke-width="1.51"/><path d="M554,539L655,575L686,457Z" fill="#8b7a99" stroke="#8b7a99" stroke-width="1.51"/><path d="M742,232L688,238L684,372Z" fill="#8088a4" stroke="#8088a4" stroke-width="1.51"/><path d="M515,484L554,539L686,457Z" fill="#887f9c" stroke="#887f9c" stroke-width="1.51"/><path d="M515,484L686,457L684,372Z" fill="#87819e" stroke="#87819e" stroke-width="1.51"/><path d="M688,238L523,341L684,372Z" fill="#7f89a5" stroke="#7f89a5" stroke-width="1.51"/><path d="M523,341L515,484L684,372Z" fill="#8386a2" stroke="#8386a2" stroke-width="1.51"/><path d="M853,555L993,461L857,466Z" fill="#927191" stroke="#927191" stroke-width="1.51"/><path d="M880,354L892,201L742,232Z" fill="#8483a1" stroke="#8483a1" stroke-width="1.51"/><path d="M673,128L568,206L688,238Z" fill="#7790ac" stroke="#7790ac" stroke-width="1.51"/><path d="M993,213L892,201L880,354Z" fill="#86819e" stroke="#86819e" stroke-width="1.51"/><path d="M688,238L568,206L523,341Z" fill="#7a8eaa" stroke="#7a8eaa" stroke-width="1.51"/><path d="M673,128L688,238L742,232Z" fill="#7a8da9" stroke="#7a8da9" stroke-width="1.51"/><path d="M655,575L801,689L769,528Z" fill="#927190" stroke="#927190" stroke-width="1.51"/><path d="M853,555L1026,580L993,461Z" fill="#956b8c" stroke="#956b8c" stroke-width="1.51"/><path d="M649,683L801,689L655,575Z" fill="#936e8f" stroke="#936e8f" stroke-width="1.51"/><path d="M554,539L649,683L655,575Z" fill="#8e7595" stroke="#8e7595" stroke-width="1.51"/><path d="M510,717L649,683L554,539Z" fill="#8f7494" stroke="#8f7494" stroke-width="1.51"/><path d="M993,461L1027,361L880,354Z" fill="#8f7594" stroke="#8f7594" stroke-width="1.51"/><path d="M805,76L673,128L742,232Z" fill="#788fac" stroke="#788fac" stroke-width="1.51"/><path d="M801,689L892,680L853,555Z" fill="#96688a" stroke="#96688a" stroke-width="1.51"/><path d="M892,201L878,137L742,232Z" fill="#7f89a5" stroke="#7f89a5" stroke-width="1.51"/><path d="M993,213L878,137L892,201Z" fill="#8285a2" stroke="#8285a2" stroke-width="1.51"/><path d="M1027,361L993,213L880,354Z" fill="#8b7b99" stroke="#8b7b99" stroke-width="1.51"/><path d="M892,680L1026,580L853,555Z" fill="#966889" stroke="#966889" stroke-width="1.51"/><path d="M993,461L1097,366L1027,361Z" fill="#917291" stroke="#917291" stroke-width="1.51"/><path d="M515,484L407,578L554,539Z" fill="#87809d" stroke="#87809d" stroke-width="1.51"/><path d="M523,341L407,428L515,484Z" fill="#8088a5" stroke="#8088a5" stroke-width="1.51"/><path d="M393,353L407,428L523,341Z" fill="#7b8da9" stroke="#7b8da9" stroke-width="1.51"/><path d="M878,137L805,76L742,232Z" fill="#7c8da9" stroke="#7c8da9" stroke-width="1.51"/><path d="M911,3L805,76L878,137Z" fill="#798fab" stroke="#798fab" stroke-width="1.51"/><path d="M439,181L393,353L523,341Z" fill="#7692ad" stroke="#7692ad" stroke-width="1.51"/><path d="M1027,361L1144,233L993,213Z" fill="#8c7a99" stroke="#8c7a99" stroke-width="1.51"/><path d="M1140,422L1097,366L993,461Z" fill="#936e8f" stroke="#936e8f" stroke-width="1.51"/><path d="M407,428L407,578L515,484Z" fill="#8384a2" stroke="#8384a2" stroke-width="1.51"/><path d="M340,485L407,578L407,428Z" fill="#8187a4" stroke="#8187a4" stroke-width="1.51"/><path d="M892,680L1042,693L1026,580Z" fill="#9a6185" stroke="#9a6185" stroke-width="1.51"/><path d="M801,689L866,768L892,680Z" fill="#996386" stroke="#996386" stroke-width="1.51"/><path d="M814,795L866,768L801,689Z" fill="#9a6184" stroke="#9a6184" stroke-width="1.51"/><path d="M673,128L563,80L568,206Z" fill="#7096b1" stroke="#7096b1" stroke-width="1.51"/><path d="M568,206L439,181L523,341Z" fill="#7493ae" stroke="#7493ae" stroke-width="1.51"/><path d="M663,1L563,80L673,128Z" fill="#6c99b4" stroke="#6c99b4" stroke-width="1.51"/><path d="M563,80L439,181L568,206Z" fill="#6d98b3" stroke="#6d98b3" stroke-width="1.51"/><path d="M407,578L510,717L554,539Z" fill="#8b7a99" stroke="#8b7a99" stroke-width="1.51"/><path d="M649,683L658,789L801,689Z" fill="#96698b" stroke="#96698b" stroke-width="1.51"/><path d="M569,801L658,789L649,683Z" fill="#956a8c" stroke="#956a8c" stroke-width="1.51"/><path d="M393,353L355,372L407,428Z" fill="#7a8faa" stroke="#7a8faa" stroke-width="1.51"/><path d="M350,215L355,372L393,353Z" fill="#7294af" stroke="#7294af" stroke-width="1.51"/><path d="M658,789L814,795L801,689Z" fill="#986487" stroke="#986487" stroke-width="1.51"/><path d="M1126,541L1140,422L993,461Z" fill="#95698b" stroke="#95698b" stroke-width="1.51"/><path d="M1144,233L1014,98L993,213Z" fill="#87809d" stroke="#87809d" stroke-width="1.51"/><path d="M355,372L340,485L407,428Z" fill="#7c8ca9" stroke="#7c8ca9" stroke-width="1.51"/><path d="M1140,704L1126,541L1026,580Z" fill="#9b5f83" stroke="#9b5f83" stroke-width="1.51"/><path d="M1026,580L1126,541L993,461Z" fill="#966889" stroke="#966889" stroke-width="1.51"/><path d="M1023,805L1042,693L892,680Z" fill="#9c5b80" stroke="#9c5b80" stroke-width="1.51"/><path d="M1023,805L892,680L866,768Z" fill="#9c5c81" stroke="#9c5c81" stroke-width="1.51"/><path d="M993,213L1014,98L878,137Z" fill="#8286a3" stroke="#8286a3" stroke-width="1.51"/><path d="M1144,233L1027,361L1097,366Z" fill="#8f7594" stroke="#8f7594" stroke-width="1.51"/><path d="M752,-50L663,1L805,76Z" fill="#6d99b4" stroke="#6d99b4" stroke-width="1.51"/><path d="M805,76L663,1L673,128Z" fill="#7095b1" stroke="#7095b1" stroke-width="1.51"/><path d="M658,789L797,902L814,795Z" fill="#9a5f83" stroke="#9a5f83" stroke-width="1.51"/><path d="M510,717L569,801L649,683Z" fill="#936e8f" stroke="#936e8f" stroke-width="1.51"/><path d="M531,880L569,801L399,829Z" fill="#956a8c" stroke="#956a8c" stroke-width="1.51"/><path d="M439,181L350,215L393,353Z" fill="#6f97b2" stroke="#6f97b2" stroke-width="1.51"/><path d="M229,566L298,576L340,485Z" fill="#8088a5" stroke="#8088a5" stroke-width="1.51"/><path d="M290,94L350,215L439,181Z" fill="#649eb9" stroke="#649eb9" stroke-width="1.51"/><path d="M443,80L439,181L563,80Z" fill="#679cb7" stroke="#679cb7" stroke-width="1.51"/><path d="M1243,295L1144,233L1097,366Z" fill="#907393" stroke="#907393" stroke-width="1.51"/><path d="M980,25L911,3L878,137Z" fill="#7a8eaa" stroke="#7a8eaa" stroke-width="1.51"/><path d="M450,-13L443,80L563,80Z" fill="#60a1bb" stroke="#60a1bb" stroke-width="1.51"/><path d="M407,578L410,717L510,717Z" fill="#8d7897" stroke="#8d7897" stroke-width="1.51"/><path d="M285,653L410,717L407,578Z" fill="#897d9c" stroke="#897d9c" stroke-width="1.51"/><path d="M1127,67L980,25L1014,98Z" fill="#7f89a5" stroke="#7f89a5" stroke-width="1.51"/><path d="M1014,98L980,25L878,137Z" fill="#7e8aa7" stroke="#7e8aa7" stroke-width="1.51"/><path d="M663,1L567,-10L563,80Z" fill="#659db8" stroke="#659db8" stroke-width="1.51"/><path d="M551,-114L567,-10L623,-140Z" fill="#61a0ba" stroke="#61a0ba" stroke-width="1.51"/><path d="M911,3L752,-50L805,76Z" fill="#7195b1" stroke="#7195b1" stroke-width="1.51"/><path d="M864,-109L752,-50L911,3Z" fill="#7195b0" stroke="#7195b0" stroke-width="1.51"/><path d="M340,485L298,576L407,578Z" fill="#8385a2" stroke="#8385a2" stroke-width="1.51"/><path d="M193,475L340,485L355,372Z" fill="#7a8eaa" stroke="#7a8eaa" stroke-width="1.51"/><path d="M865,931L1023,805L866,768Z" fill="#9e567d" stroke="#9e567d" stroke-width="1.51"/><path d="M1042,693L1140,704L1026,580Z" fill="#9c5d81" stroke="#9c5d81" stroke-width="1.51"/><path d="M865,931L866,768L814,795Z" fill="#9d597f" stroke="#9d597f" stroke-width="1.51"/><path d="M655,940L797,902L658,789Z" fill="#9b5d81" stroke="#9b5d81" stroke-width="1.51"/><path d="M1091,774L1140,704L1042,693Z" fill="#9e577c" stroke="#9e577c" stroke-width="1.51"/><path d="M1126,541L1261,489L1140,422Z" fill="#986587" stroke="#986587" stroke-width="1.51"/><path d="M1140,422L1243,295L1097,366Z" fill="#936e8f" stroke="#936e8f" stroke-width="1.51"/><path d="M1023,805L1091,774L1042,693Z" fill="#9e557c" stroke="#9e557c" stroke-width="1.51"/><path d="M1140,704L1221,562L1126,541Z" fill="#9b5c81" stroke="#9b5c81" stroke-width="1.51"/><path d="M569,801L655,940L658,789Z" fill="#986486" stroke="#986486" stroke-width="1.51"/><path d="M399,829L569,801L510,717Z" fill="#936e8f" stroke="#936e8f" stroke-width="1.51"/><path d="M399,829L510,717L410,717Z" fill="#907292" stroke="#907292" stroke-width="1.51"/><path d="M298,576L285,653L407,578Z" fill="#85829f" stroke="#85829f" stroke-width="1.51"/><path d="M229,566L285,653L298,576Z" fill="#8385a2" stroke="#8385a2" stroke-width="1.51"/><path d="M567,-10L450,-13L563,80Z" fill="#60a1bb" stroke="#60a1bb" stroke-width="1.51"/><path d="M443,80L290,94L439,181Z" fill="#61a0ba" stroke="#61a0ba" stroke-width="1.51"/><path d="M551,-114L450,-13L567,-10Z" fill="#5da2bd" stroke="#5da2bd" stroke-width="1.51"/><path d="M1261,489L1243,295L1140,422Z" fill="#95698b" stroke="#95698b" stroke-width="1.51"/><path d="M1144,233L1127,67L1014,98Z" fill="#86819f" stroke="#86819f" stroke-width="1.51"/><path d="M1235,109L1127,67L1144,233Z" fill="#887e9c" stroke="#887e9c" stroke-width="1.51"/><path d="M1031,-154L864,-109L911,3Z" fill="#7691ad" stroke="#7691ad" stroke-width="1.51"/><path d="M1221,562L1261,489L1126,541Z" fill="#9a6084" stroke="#9a6084" stroke-width="1.51"/><path d="M350,215L218,318L355,372Z" fill="#6f97b2" stroke="#6f97b2" stroke-width="1.51"/><path d="M207,219L218,318L350,215Z" fill="#679db7" stroke="#679db7" stroke-width="1.51"/><path d="M1256,873L1205,762L1091,774Z" fill="#a14b75" stroke="#a14b75" stroke-width="1.51"/><path d="M797,902L865,931L814,795Z" fill="#9d577e" stroke="#9d577e" stroke-width="1.51"/><path d="M742,1003L865,931L797,902Z" fill="#9d577d" stroke="#9d577d" stroke-width="1.51"/><path d="M193,475L229,566L340,485Z" fill="#7d8ca8" stroke="#7d8ca8" stroke-width="1.51"/><path d="M531,880L655,940L569,801Z" fill="#996386" stroke="#996386" stroke-width="1.51"/><path d="M1031,-154L911,3L980,25Z" fill="#7890ac" stroke="#7890ac" stroke-width="1.51"/><path d="M623,-140L567,-10L663,1Z" fill="#649eb9" stroke="#649eb9" stroke-width="1.51"/><path d="M339,824L399,829L410,717Z" fill="#907392" stroke="#907392" stroke-width="1.51"/><path d="M531,880L568,986L655,940Z" fill="#996185" stroke="#996185" stroke-width="1.51"/><path d="M218,318L193,475L355,372Z" fill="#7393af" stroke="#7393af" stroke-width="1.51"/><path d="M339,2L290,94L443,80Z" fill="#57a5bf" stroke="#57a5bf" stroke-width="1.51"/><path d="M450,-13L339,2L443,80Z" fill="#57a5bf" stroke="#57a5bf" stroke-width="1.51"/><path d="M623,-140L663,1L752,-50Z" fill="#689cb7" stroke="#689cb7" stroke-width="1.51"/><path d="M864,-109L786,-145L752,-50Z" fill="#6f97b2" stroke="#6f97b2" stroke-width="1.51"/><path d="M1243,295L1266,215L1144,233Z" fill="#907493" stroke="#907493" stroke-width="1.51"/><path d="M1360,204L1266,215L1243,295Z" fill="#917192" stroke="#917192" stroke-width="1.51"/><path d="M786,-145L623,-140L752,-50Z" fill="#6a9ab5" stroke="#6a9ab5" stroke-width="1.51"/><path d="M218,318L120,414L193,475Z" fill="#7096b1" stroke="#7096b1" stroke-width="1.51"/><path d="M233,125L207,219L350,215Z" fill="#60a1bb" stroke="#60a1bb" stroke-width="1.51"/><path d="M354,931L421,887L399,829Z" fill="#946b8d" stroke="#946b8d" stroke-width="1.51"/><path d="M399,829L421,887L531,880Z" fill="#956a8c" stroke="#956a8c" stroke-width="1.51"/><path d="M339,824L410,717L285,653Z" fill="#8d7897" stroke="#8d7897" stroke-width="1.51"/><path d="M236,698L339,824L285,653Z" fill="#8b7b9a" stroke="#8b7b9a" stroke-width="1.51"/><path d="M290,94L233,125L350,215Z" fill="#5da2bc" stroke="#5da2bc" stroke-width="1.51"/><path d="M396,-120L339,2L450,-13Z" fill="#52a7c1" stroke="#52a7c1" stroke-width="1.51"/><path d="M84,663L236,698L229,566Z" fill="#8286a3" stroke="#8286a3" stroke-width="1.51"/><path d="M229,566L236,698L285,653Z" fill="#8583a0" stroke="#8583a0" stroke-width="1.51"/><path d="M1127,67L1145,-3L980,25Z" fill="#7f89a6" stroke="#7f89a6" stroke-width="1.51"/><path d="M864,-109L1031,-154L786,-145Z" fill="#7493ae" stroke="#7493ae" stroke-width="1.51"/><path d="M1235,109L1145,-3L1127,67Z" fill="#8484a1" stroke="#8484a1" stroke-width="1.51"/><path d="M1266,215L1235,109L1144,233Z" fill="#8c7997" stroke="#8c7997" stroke-width="1.51"/><path d="M1140,704L1254,717L1221,562Z" fill="#9e567c" stroke="#9e567c" stroke-width="1.51"/><path d="M1221,562L1358,548L1261,489Z" fill="#9b5c81" stroke="#9b5c81" stroke-width="1.51"/><path d="M1091,774L1205,762L1140,704Z" fill="#9f5279" stroke="#9f5279" stroke-width="1.51"/><path d="M1091,938L1091,774L1023,805Z" fill="#a04e77" stroke="#a04e77" stroke-width="1.51"/><path d="M191,12L233,125L290,94Z" fill="#4fa9c2" stroke="#4fa9c2" stroke-width="1.51"/><path d="M655,940L742,1003L797,902Z" fill="#9c5a7f" stroke="#9c5a7f" stroke-width="1.51"/><path d="M865,931L992,950L1023,805Z" fill="#a04e78" stroke="#a04e78" stroke-width="1.51"/><path d="M657,1014L742,1003L655,940Z" fill="#9b5c81" stroke="#9b5c81" stroke-width="1.51"/><path d="M913,1031L992,950L865,931Z" fill="#9f5079" stroke="#9f5079" stroke-width="1.51"/><path d="M1205,762L1254,717L1140,704Z" fill="#a05079" stroke="#a05079" stroke-width="1.51"/><path d="M421,887L568,986L531,880Z" fill="#986588" stroke="#986588" stroke-width="1.51"/><path d="M568,986L657,1014L655,940Z" fill="#9a5f83" stroke="#9a5f83" stroke-width="1.51"/><path d="M193,475L88,529L229,566Z" fill="#7a8eaa" stroke="#7a8eaa" stroke-width="1.51"/><path d="M92,340L120,414L218,318Z" fill="#6b9ab5" stroke="#6b9ab5" stroke-width="1.51"/><path d="M92,340L218,318L207,219Z" fill="#659db8" stroke="#659db8" stroke-width="1.51"/><path d="M1254,717L1317,659L1221,562Z" fill="#9e547b" stroke="#9e547b" stroke-width="1.51"/><path d="M1261,489L1369,344L1243,295Z" fill="#97688a" stroke="#97688a" stroke-width="1.51"/><path d="M992,950L1091,938L1023,805Z" fill="#a14a75" stroke="#a14a75" stroke-width="1.51"/><path d="M1205,762L1335,778L1254,717Z" fill="#a14b75" stroke="#a14b75" stroke-width="1.51"/><path d="M1254,717L1335,778L1317,659Z" fill="#a14c75" stroke="#a14c75" stroke-width="1.51"/><path d="M1088,991L1091,938L992,950Z" fill="#a14974" stroke="#a14974" stroke-width="1.51"/><path d="M1317,659L1358,548L1221,562Z" fill="#9d577d" stroke="#9d577d" stroke-width="1.51"/><path d="M1266,215L1328,79L1235,109Z" fill="#8c7a98" stroke="#8c7a98" stroke-width="1.51"/><path d="M1390,481L1369,344L1261,489Z" fill="#9a6084" stroke="#9a6084" stroke-width="1.51"/><path d="M551,-114L396,-120L450,-13Z" fill="#58a4bf" stroke="#58a4bf" stroke-width="1.51"/><path d="M339,2L191,12L290,94Z" fill="#4caac4" stroke="#4caac4" stroke-width="1.51"/><path d="M623,-140L396,-120L551,-114Z" fill="#5da2bd" stroke="#5da2bd" stroke-width="1.51"/><path d="M1126,-151L1031,-154L1145,-3Z" fill="#7e8aa7" stroke="#7e8aa7" stroke-width="1.51"/><path d="M1145,-3L1031,-154L980,25Z" fill="#7c8ca9" stroke="#7c8ca9" stroke-width="1.51"/><path d="M786,-145L-34,-163L623,-140Z" fill="#58a5bf" stroke="#58a5bf" stroke-width="1.51"/><path d="M657,1014L913,1031L742,1003Z" fill="#9d587e" stroke="#9d587e" stroke-width="1.51"/><path d="M742,1003L913,1031L865,931Z" fill="#9e547c" stroke="#9e547c" stroke-width="1.51"/><path d="M568,986L402,1054L657,1014Z" fill="#986386" stroke="#986386" stroke-width="1.51"/><path d="M421,887L402,1054L568,986Z" fill="#976789" stroke="#976789" stroke-width="1.51"/><path d="M339,824L354,931L399,829Z" fill="#936f8f" stroke="#936f8f" stroke-width="1.51"/><path d="M226,886L354,931L339,824Z" fill="#926f90" stroke="#926f90" stroke-width="1.51"/><path d="M1235,109L1216,-26L1145,-3Z" fill="#8384a2" stroke="#8384a2" stroke-width="1.51"/><path d="M1328,79L1216,-26L1235,109Z" fill="#87809d" stroke="#87809d" stroke-width="1.51"/><path d="M63,194L92,340L207,219Z" fill="#5da2bd" stroke="#5da2bd" stroke-width="1.51"/><path d="M1358,548L1390,481L1261,489Z" fill="#9c5b80" stroke="#9c5b80" stroke-width="1.51"/><path d="M1435,482L1390,481L1358,548Z" fill="#9d597f" stroke="#9d597f" stroke-width="1.51"/><path d="M1369,344L1360,204L1243,295Z" fill="#936d8e" stroke="#936d8e" stroke-width="1.51"/><path d="M1454,329L1360,204L1369,344Z" fill="#96698b" stroke="#96698b" stroke-width="1.51"/><path d="M236,698L217,818L339,824Z" fill="#8c7997" stroke="#8c7997" stroke-width="1.51"/><path d="M69,761L217,818L236,698Z" fill="#887e9c" stroke="#887e9c" stroke-width="1.51"/><path d="M88,529L193,475L120,414Z" fill="#7493af" stroke="#7493af" stroke-width="1.51"/><path d="M-10,416L88,529L120,414Z" fill="#6f97b3" stroke="#6f97b3" stroke-width="1.51"/><path d="M96,100L63,194L207,219Z" fill="#52a7c1" stroke="#52a7c1" stroke-width="1.51"/><path d="M396,-120L307,-102L339,2Z" fill="#4da9c3" stroke="#4da9c3" stroke-width="1.51"/><path d="M1028,1056L1088,991L992,950Z" fill="#a14a75" stroke="#a14a75" stroke-width="1.51"/><path d="M1091,938L1256,873L1091,774Z" fill="#a24773" stroke="#a24773" stroke-width="1.51"/><path d="M1360,204L1328,79L1266,215Z" fill="#8f7694" stroke="#8f7694" stroke-width="1.51"/><path d="M206,-89L191,12L339,2Z" fill="#42adc7" stroke="#42adc7" stroke-width="1.51"/><path d="M1256,-116L1126,-151L1216,-26Z" fill="#8286a3" stroke="#8286a3" stroke-width="1.51"/><path d="M1216,-26L1126,-151L1145,-3Z" fill="#8088a4" stroke="#8088a4" stroke-width="1.51"/><path d="M1437,600L1435,482L1358,548Z" fill="#9e557c" stroke="#9e557c" stroke-width="1.51"/><path d="M1225,1043L1256,873L1091,938Z" fill="#a3416f" stroke="#a3416f" stroke-width="1.51"/><path d="M217,818L226,886L339,824Z" fill="#8f7494" stroke="#8f7494" stroke-width="1.51"/><path d="M84,932L226,886L217,818Z" fill="#8e7695" stroke="#8e7695" stroke-width="1.51"/><path d="M1256,873L1335,778L1205,762Z" fill="#a24672" stroke="#a24672" stroke-width="1.51"/><path d="M1390,481L1435,482L1369,344Z" fill="#9b5e82" stroke="#9b5e82" stroke-width="1.51"/><path d="M1430,0L1347,18L1328,79Z" fill="#897d9b" stroke="#897d9b" stroke-width="1.51"/><path d="M1437,600L1358,548L1317,659Z" fill="#9f527a" stroke="#9f527a" stroke-width="1.51"/><path d="M88,529L84,663L229,566Z" fill="#7c8ba8" stroke="#7c8ba8" stroke-width="1.51"/><path d="M-43,537L84,663L88,529Z" fill="#7890ac" stroke="#7890ac" stroke-width="1.51"/><path d="M1225,1043L1316,910L1256,873Z" fill="#a43c6d" stroke="#a43c6d" stroke-width="1.51"/><path d="M913,1031L1028,1056L992,950Z" fill="#a04e77" stroke="#a04e77" stroke-width="1.51"/><path d="M402,1054L1028,1056L913,1031Z" fill="#9d577e" stroke="#9d577e" stroke-width="1.51"/><path d="M92,340L-10,416L120,414Z" fill="#699bb6" stroke="#699bb6" stroke-width="1.51"/><path d="M96,100L207,219L233,125Z" fill="#54a7c1" stroke="#54a7c1" stroke-width="1.51"/><path d="M191,12L96,100L233,125Z" fill="#48abc5" stroke="#48abc5" stroke-width="1.51"/><path d="M124,18L96,100L191,12Z" fill="#3cafc9" stroke="#3cafc9" stroke-width="1.51"/><path d="M1435,482L1454,329L1369,344Z" fill="#9a6184" stroke="#9a6184" stroke-width="1.51"/><path d="M1611,421L1568,297L1454,329Z" fill="#996386" stroke="#996386" stroke-width="1.51"/><path d="M1485,658L1437,600L1317,659Z" fill="#a04c76" stroke="#a04c76" stroke-width="1.51"/><path d="M354,931L402,1054L421,887Z" fill="#956a8c" stroke="#956a8c" stroke-width="1.51"/><path d="M657,1014L402,1054L913,1031Z" fill="#9b5e82" stroke="#9b5e82" stroke-width="1.51"/><path d="M301,1021L402,1054L354,931Z" fill="#946c8d" stroke="#946c8d" stroke-width="1.51"/><path d="M1328,79L1347,18L1216,-26Z" fill="#87809e" stroke="#87809e" stroke-width="1.51"/><path d="M1457,197L1328,79L1360,204Z" fill="#907393" stroke="#907393" stroke-width="1.51"/><path d="M206,-89L124,18L191,12Z" fill="#37b0ca" stroke="#37b0ca" stroke-width="1.51"/><path d="M-32,214L-35,324L63,194Z" fill="#52a7c2" stroke="#52a7c2" stroke-width="1.51"/><path d="M307,-102L206,-89L339,2Z" fill="#46acc6" stroke="#46acc6" stroke-width="1.51"/><path d="M107,-115L206,-89L307,-102Z" fill="#3dafc9" stroke="#3dafc9" stroke-width="1.51"/><path d="M1347,18L1256,-116L1216,-26Z" fill="#8583a0" stroke="#8583a0" stroke-width="1.51"/><path d="M1454,329L1457,197L1360,204Z" fill="#956b8c" stroke="#956b8c" stroke-width="1.51"/><path d="M167,1013L301,1021L226,886Z" fill="#917192" stroke="#917192" stroke-width="1.51"/><path d="M226,886L301,1021L354,931Z" fill="#936f8f" stroke="#936f8f" stroke-width="1.51"/><path d="M-35,324L-10,416L92,340Z" fill="#629fba" stroke="#629fba" stroke-width="1.51"/><path d="M-50,688L69,761L84,663Z" fill="#8088a4" stroke="#8088a4" stroke-width="1.51"/><path d="M84,663L69,761L236,698Z" fill="#8483a1" stroke="#8483a1" stroke-width="1.51"/><path d="M1463,773L1485,658L1317,659Z" fill="#a24773" stroke="#a24773" stroke-width="1.51"/><path d="M1256,873L1316,910L1335,778Z" fill="#a43f6e" stroke="#a43f6e" stroke-width="1.51"/><path d="M1225,1043L1091,938L1088,991Z" fill="#a34471" stroke="#a34471" stroke-width="1.51"/><path d="M63,194L-35,324L92,340Z" fill="#5ba3be" stroke="#5ba3be" stroke-width="1.51"/><path d="M-10,416L-43,537L88,529Z" fill="#7097b2" stroke="#7097b2" stroke-width="1.51"/><path d="M-32,214L63,194L-1,89Z" fill="#46acc6" stroke="#46acc6" stroke-width="1.51"/><path d="M1437,600L1597,551L1435,482Z" fill="#9f537b" stroke="#9f537b" stroke-width="1.51"/><path d="M1567,249L1507,92L1457,197Z" fill="#936f90" stroke="#936f90" stroke-width="1.51"/><path d="M1463,773L1317,659L1335,778Z" fill="#a24672" stroke="#a24672" stroke-width="1.51"/><path d="M-117,416L-43,537L-10,416Z" fill="#6b9ab5" stroke="#6b9ab5" stroke-width="1.51"/><path d="M1028,1056L1225,1043L1088,991Z" fill="#a24572" stroke="#a24572" stroke-width="1.51"/><path d="M-35,324L-117,416L-10,416Z" fill="#649eb9" stroke="#649eb9" stroke-width="1.51"/><path d="M-1,89L63,194L96,100Z" fill="#43adc7" stroke="#43adc7" stroke-width="1.51"/><path d="M-1,89L96,100L-15,18Z" fill="#31b2cb" stroke="#31b2cb" stroke-width="1.51"/><path d="M1347,18L1351,-137L1256,-116Z" fill="#86819e" stroke="#86819e" stroke-width="1.51"/><path d="M1507,92L1430,0L1328,79Z" fill="#8d7997" stroke="#8d7997" stroke-width="1.51"/><path d="M1483,934L1463,773L1316,910Z" fill="#a63569" stroke="#a63569" stroke-width="1.51"/><path d="M1316,910L1463,773L1335,778Z" fill="#a43e6e" stroke="#a43e6e" stroke-width="1.51"/><path d="M-15,18L96,100L124,18Z" fill="#32b1cb" stroke="#32b1cb" stroke-width="1.51"/><path d="M1430,0L1351,-137L1347,18Z" fill="#887e9c" stroke="#887e9c" stroke-width="1.51"/><path d="M1256,-116L1351,-137L1126,-151Z" fill="#8384a1" stroke="#8384a1" stroke-width="1.51"/><path d="M206,-89L107,-115L124,18Z" fill="#32b1cb" stroke="#32b1cb" stroke-width="1.51"/><path d="M396,-120L107,-115L307,-102Z" fill="#45acc6" stroke="#45acc6" stroke-width="1.51"/><path d="M-34,-163L107,-115L396,-120Z" fill="#35b1cb" stroke="#35b1cb" stroke-width="1.51"/><path d="M84,932L167,1013L226,886Z" fill="#8f7594" stroke="#8f7594" stroke-width="1.51"/><path d="M301,1021L94,1030L402,1054Z" fill="#927090" stroke="#927090" stroke-width="1.51"/><path d="M84,932L217,818L69,761Z" fill="#8b7b99" stroke="#8b7b99" stroke-width="1.51"/><path d="M1430,0L1455,-141L1351,-137Z" fill="#897d9b" stroke="#897d9b" stroke-width="1.51"/><path d="M1457,197L1507,92L1328,79Z" fill="#907394" stroke="#907394" stroke-width="1.51"/><path d="M1567,249L1457,197L1454,329Z" fill="#96698b" stroke="#96698b" stroke-width="1.51"/><path d="M-29,898L84,932L69,761Z" fill="#8a7c9b" stroke="#8a7c9b" stroke-width="1.51"/><path d="M-43,537L-50,688L84,663Z" fill="#7a8eaa" stroke="#7a8eaa" stroke-width="1.51"/><path d="M-140,671L-50,688L-43,537Z" fill="#7a8eaa" stroke="#7a8eaa" stroke-width="1.51"/><path d="M1611,421L1454,329L1435,482Z" fill="#9b5e82" stroke="#9b5e82" stroke-width="1.51"/><path d="M1597,551L1437,600L1485,658Z" fill="#a04e77" stroke="#a04e77" stroke-width="1.51"/><path d="M1568,297L1567,249L1454,329Z" fill="#976789" stroke="#976789" stroke-width="1.51"/><path d="M1225,1043L1360,988L1316,910Z" fill="#a53a6c" stroke="#a53a6c" stroke-width="1.51"/><path d="M107,-115L-15,18L124,18Z" fill="#22b4ce" stroke="#22b4ce" stroke-width="1.51"/><path d="M-154,215L-124,300L-32,214Z" fill="#52a8c2" stroke="#52a8c2" stroke-width="1.51"/><path d="M-124,300L-35,324L-32,214Z" fill="#57a5bf" stroke="#57a5bf" stroke-width="1.51"/><path d="M-124,300L-117,416L-35,324Z" fill="#5fa1bb" stroke="#5fa1bb" stroke-width="1.51"/><path d="M1611,641L1485,658L1586,778Z" fill="#a24672" stroke="#a24672" stroke-width="1.51"/><path d="M1611,641L1597,551L1485,658Z" fill="#a04d77" stroke="#a04d77" stroke-width="1.51"/><path d="M1568,297L1611,421L1567,249Z" fill="#986487" stroke="#986487" stroke-width="1.51"/><path d="M-140,671L-61,756L-50,688Z" fill="#7f89a6" stroke="#7f89a6" stroke-width="1.51"/><path d="M-50,688L-61,756L69,761Z" fill="#8187a4" stroke="#8187a4" stroke-width="1.51"/><path d="M-105,124L-32,214L-1,89Z" fill="#40aec8" stroke="#40aec8" stroke-width="1.51"/><path d="M1597,551L1611,421L1435,482Z" fill="#9d587e" stroke="#9d587e" stroke-width="1.51"/><path d="M-15,18L-105,124L-1,89Z" fill="#2eb2cc" stroke="#2eb2cc" stroke-width="1.51"/><path d="M-2,997L94,1030L84,932Z" fill="#8c7998" stroke="#8c7998" stroke-width="1.51"/><path d="M84,932L94,1030L167,1013Z" fill="#8e7796" stroke="#8e7796" stroke-width="1.51"/><path d="M167,1013L94,1030L301,1021Z" fill="#907493" stroke="#907493" stroke-width="1.51"/><path d="M-117,416L-150,538L-43,537Z" fill="#6f97b2" stroke="#6f97b2" stroke-width="1.51"/><path d="M-154,215L-150,538L-117,416Z" fill="#659eb9" stroke="#659eb9" stroke-width="1.51"/><path d="M-154,215L-117,416L-124,300Z" fill="#5ba3be" stroke="#5ba3be" stroke-width="1.51"/><path d="M1597,551L1611,641L1611,421Z" fill="#9e537b" stroke="#9e537b" stroke-width="1.51"/><path d="M1586,778L1485,658L1463,773Z" fill="#a34270" stroke="#a34270" stroke-width="1.51"/><path d="M1551,-95L1455,-141L1430,0Z" fill="#8a7c9a" stroke="#8a7c9a" stroke-width="1.51"/><path d="M1351,-137L1455,-141L1126,-151Z" fill="#86819f" stroke="#86819f" stroke-width="1.51"/><path d="M1126,-151L1455,-141L1031,-154Z" fill="#8286a3" stroke="#8286a3" stroke-width="1.51"/><path d="M1551,-95L1430,0L1591,-38Z" fill="#8a7c9a" stroke="#8a7c9a" stroke-width="1.51"/><path d="M1360,988L1483,934L1316,910Z" fill="#a63469" stroke="#a63469" stroke-width="1.51"/><path d="M-61,756L-29,898L69,761Z" fill="#85829f" stroke="#85829f" stroke-width="1.51"/><path d="M-132,769L-29,898L-61,756Z" fill="#85829f" stroke="#85829f" stroke-width="1.51"/><path d="M1567,249L1594,92L1507,92Z" fill="#917192" stroke="#917192" stroke-width="1.51"/><path d="M1611,421L1594,92L1567,249Z" fill="#95698b" stroke="#95698b" stroke-width="1.51"/><path d="M-105,124L-154,215L-32,214Z" fill="#48abc5" stroke="#48abc5" stroke-width="1.51"/><path d="M-150,538L-140,671L-43,537Z" fill="#7691ad" stroke="#7691ad" stroke-width="1.51"/><path d="M1586,893L1586,778L1463,773Z" fill="#a53a6b" stroke="#a53a6b" stroke-width="1.51"/><path d="M-140,671L-132,769L-61,756Z" fill="#8187a4" stroke="#8187a4" stroke-width="1.51"/><path d="M-129,1023L-2,997L-29,898Z" fill="#8a7c9a" stroke="#8a7c9a" stroke-width="1.51"/><path d="M-29,898L-2,997L84,932Z" fill="#8b7b9a" stroke="#8b7b9a" stroke-width="1.51"/><path d="M1591,-38L1430,0L1507,92Z" fill="#8b7b99" stroke="#8b7b99" stroke-width="1.51"/><path d="M1611,421L1591,-38L1594,92Z" fill="#927191" stroke="#927191" stroke-width="1.51"/><path d="M1594,92L1591,-38L1507,92Z" fill="#8d7897" stroke="#8d7897" stroke-width="1.51"/><path d="M-15,18L-165,23L-105,124Z" fill="#27b4cd" stroke="#27b4cd" stroke-width="1.51"/><path d="M-105,124L-165,23L-154,215Z" fill="#3ab0c9" stroke="#3ab0c9" stroke-width="1.51"/><path d="M107,-115L-34,-163L-15,18Z" fill="#0eb6d0" stroke="#0eb6d0" stroke-width="1.51"/><path d="M623,-140L-34,-163L396,-120Z" fill="#4caac4" stroke="#4caac4" stroke-width="1.51"/><path d="M1031,-154L-34,-163L786,-145Z" fill="#629fba" stroke="#629fba" stroke-width="1.51"/><path d="M1483,934L1586,893L1463,773Z" fill="#a63469" stroke="#a63469" stroke-width="1.51"/><path d="M1360,988L1495,1021L1483,934Z" fill="#a63067" stroke="#a63067" stroke-width="1.51"/><path d="M1225,1043L1495,1021L1360,988Z" fill="#a53669" stroke="#a53669" stroke-width="1.51"/><path d="M1570,989L1586,893L1483,934Z" fill="#a63067" stroke="#a63067" stroke-width="1.51"/><path d="M1586,778L1586,893L1611,641Z" fill="#a43f6e" stroke="#a43f6e" stroke-width="1.51"/><path d="M-176,-103L-165,23L-15,18Z" fill="#00b7d1" stroke="#00b7d1" stroke-width="1.51"/><path d="M-154,215L-171,878L-150,538Z" fill="#7394af" stroke="#7394af" stroke-width="1.51"/><path d="M1495,1021L1570,989L1483,934Z" fill="#a63067" stroke="#a63067" stroke-width="1.51"/><path d="M-132,769L-171,878L-29,898Z" fill="#877f9d" stroke="#877f9d" stroke-width="1.51"/><path d="M-140,671L-171,878L-132,769Z" fill="#8384a2" stroke="#8384a2" stroke-width="1.51"/><path d="M-150,538L-171,878L-140,671Z" fill="#7e8aa6" stroke="#7e8aa6" stroke-width="1.51"/><path d="M-165,23L-171,878L-154,215Z" fill="#629fba" stroke="#629fba" stroke-width="1.51"/><path d="M-165,23L-176,-103L-171,878Z" fill="#55a6c0" stroke="#55a6c0" stroke-width="1.51"/><path d="M-34,-163L-176,-103L-15,18Z" fill="#00b7d1" stroke="#00b7d1" stroke-width="1.51"/><path d="M-171,878L-129,1023L-29,898Z" fill="#8a7c9a" stroke="#8a7c9a" stroke-width="1.51"/><path d="M-2,997L-129,1023L94,1030Z" fill="#8a7c9a" stroke="#8a7c9a" stroke-width="1.51"/><path d="M94,1030L-129,1023L402,1054Z" fill="#8e7695" stroke="#8e7695" stroke-width="1.51"/></svg>